<svg id="Capa_1" data-name="Capa 1" xmlns="http://www.w3.org/2000/svg" xmlns:xlink="http://www.w3.org/1999/xlink" width="200" height="200" viewBox="0 0 200 200">
  <defs>
    <style>
      .cls-1 {
        fill: none;
      }

      .cls-2 {
        clip-path: url(#clip-path);
      }

      .cls-3 {
        fill: url(#Degradado_sin_nombre_5);
      }

      .cls-4 {
        clip-path: url(#clip-path-2);
      }

      .cls-5 {
        clip-path: url(#clip-path-3);
      }
    </style>
    <clipPath id="clip-path">
      <path class="cls-1" d="M192,180.74c-2.56-7.2-5.68-14.19-8.19-21.42s-5.46-14.46-8.25-21.67c-2.32-6-4.83-11.91-7-17.95-3-8.35-6-16.71-9.57-24.83a2.72,2.72,0,0,0-2.87-1.79c-5.08,0-10.16,0-15.25,0-1.77,0-3.55.27-3.47,2.57.07,2.13,1.79,2.32,3.46,2.32,4,0,8,.15,12-.06,2.18-.11,3,.77,3.7,2.66q12.81,34.09,25.77,68.12c1.4,3.69,2.75,7.39,4.2,11.28H183.5l-94,0c-1.66,0-3.33.05-5,.08-1,0-2-.08-3-.08q-32.37,0-64.74,0c-1.45,0-2.58.25-1.73-2Q30,138.9,44.76,99.68a2.24,2.24,0,0,1,2.53-1.73C51.21,98,55.12,98,59,98c1.49,0,2.67-.73,2.72-2.34s-1.11-2.3-2.59-2.47a10.71,10.71,0,0,0-1.25,0c-4.17,0-8.34.09-12.5,0C43,93,41.74,94,40.87,96.32,32.68,118.19,24.37,140,16.1,161.84Q12.48,171.41,8.9,181c-.94,2.52-.22,3.62,2.4,3.86.58.05,1.17,0,1.75,0H82c.83,0,1.65-.11,2.48-.16a3.71,3.71,0,0,0,.73.15q52,0,104,0C192.31,184.87,193.06,183.62,192,180.74Z"/>
    </clipPath>
    <linearGradient id="Degradado_sin_nombre_5" data-name="Degradado sin nombre 5" x1="4" y1="110" x2="199" y2="110" gradientUnits="userSpaceOnUse">
      <stop offset="0" stop-color="#1f94bd"/>
      <stop offset="0.67" stop-color="#644d97"/>
      <stop offset="1" stop-color="#822e86"/>
    </linearGradient>
    <clipPath id="clip-path-2">
      <path class="cls-1" d="M99.71,109.6A41.56,41.56,0,0,1,61,82.35,41.54,41.54,0,0,1,86.75,28.59s0,0,0,0l.29-.17.24-.13L92.76,27l1.75-.17c1.29-.13,2.63-.27,4-.33A40.21,40.21,0,0,1,116,29.57a41.7,41.7,0,0,1,25.54,35.88,40.61,40.61,0,0,1-11.85,31.71A40.32,40.32,0,0,1,106.94,109,44.08,44.08,0,0,1,99.71,109.6ZM88.82,32a3.88,3.88,0,0,1-.79.38A37.5,37.5,0,0,0,64.76,81,37.5,37.5,0,0,0,106.28,105a36.4,36.4,0,0,0,20.54-10.68,37.59,37.59,0,0,0,3.51-48.61,37,37,0,0,0-15.86-12.5,36.26,36.26,0,0,0-15.78-2.82c-1.24.06-2.47.19-3.76.32l-1.65.16Zm11.32,69.5a33,33,0,0,1-9.29-64.74A33,33,0,0,1,132.24,61h0a33,33,0,0,1-32.11,40.54Zm.05-62.08A29.34,29.34,0,0,0,92,40.6a28.79,28.79,0,1,0,8.22-1.18Z"/>
    </clipPath>
    <clipPath id="clip-path-3">
      <path class="cls-1" d="M76.93,153.79a11.94,11.94,0,0,1-7.83-2.89,11.72,11.72,0,0,1-3.84-10.13l-.14,0,1-3.57h0l.53-1.86,6.48-22a5.3,5.3,0,0,1,6.57-3.58l12.56,3.7a5.3,5.3,0,0,1,3.58,6.57l-7,23.94h0l-.43,1.43a9.42,9.42,0,0,1-1.33,3,11.44,11.44,0,0,1-2,2.45,11.86,11.86,0,0,1-6.84,3Q77.49,153.79,76.93,153.79Zm-7-15.61h0l-.48,1.8a7.88,7.88,0,0,0,2.26,7.91,8,8,0,0,0,6,1.87,7.84,7.84,0,0,0,4.52-1.95,7.44,7.44,0,0,0,1.33-1.59c.1-.18.55-1.1.77-1.61l1.35-4.48h0l6.27-21.3a1.29,1.29,0,0,0-.88-1.6l-12.56-3.7a1.3,1.3,0,0,0-1.6.88Z"/>
    </clipPath>
  </defs>
  <title>Icono_lupa</title>
  <g>
    <g class="cls-2">
      <rect class="cls-3" x="4" y="21.76" width="195" height="176.48"/>
    </g>
    <g class="cls-4">
      <rect class="cls-3" x="4" y="21.76" width="195" height="176.48"/>
    </g>
    <g class="cls-5">
      <rect class="cls-3" x="4" y="21.76" width="195" height="176.48"/>
    </g>
  </g>
</svg>
