<svg id="Capa_1" data-name="Capa 1" xmlns="http://www.w3.org/2000/svg" xmlns:xlink="http://www.w3.org/1999/xlink" width="200" height="200" viewBox="0 0 200 200">
  <defs>
    <style>
      .cls-1 {
        fill: url(#linear-gradient);
      }

      .cls-2 {
        fill: url(#linear-gradient-2);
      }

      .cls-3 {
        fill: url(#linear-gradient-3);
      }

      .cls-4 {
        fill: url(#linear-gradient-4);
      }

      .cls-5 {
        fill: #3a66a2;
      }

      .cls-6 {
        fill: #3e63a0;
      }

      .cls-7 {
        fill: #42609f;
      }
    </style>
    <linearGradient id="linear-gradient" x1="8.22" y1="81.79" x2="193.62" y2="81.79" gradientTransform="matrix(1, 0, 0, -1, 0, 220.72)" gradientUnits="userSpaceOnUse">
      <stop offset="0" stop-color="#0099c3"/>
      <stop offset="1" stop-color="#8c1e81"/>
    </linearGradient>
    <linearGradient id="linear-gradient-2" x1="72.94" y1="135.04" x2="127.03" y2="135.04" gradientTransform="matrix(1, 0, 0, -1, 0, 220.72)" gradientUnits="userSpaceOnUse">
      <stop offset="0" stop-color="#306da7"/>
      <stop offset="1" stop-color="#614791"/>
    </linearGradient>
    <linearGradient id="linear-gradient-3" x1="62.46" y1="94.94" x2="137.71" y2="94.94" gradientTransform="matrix(1, 0, 0, -1, 0, 220.72)" gradientUnits="userSpaceOnUse">
      <stop offset="0" stop-color="#2674ab"/>
      <stop offset="1" stop-color="#654490"/>
    </linearGradient>
    <linearGradient id="linear-gradient-4" x1="73.38" y1="173.75" x2="125.79" y2="173.75" xlink:href="#linear-gradient-2"/>
  </defs>
  <title>Icono_participacion</title>
  <g>
    <path class="cls-1" d="M193.62,182.76a1.12,1.12,0,0,0-.19-.75h0l-33.2-87.67A2.42,2.42,0,0,0,158,92.86H133.93a2.42,2.42,0,1,0,0,4.85h22.38l31.34,82.63H14.19L45.52,97.71H67.9a2.42,2.42,0,0,0,0-4.85H43.84a2.42,2.42,0,0,0-2.24,1.49L8.4,181.83h0a1.12,1.12,0,0,0-.19.75v.19h0c0,.37,0,.56.19.75v.19c0,.19.19.19.19.37a.18.18,0,0,0,.19.19l.19.19a1,1,0,0,0,.75.37H9.9a1.12,1.12,0,0,0,.75.19H191.2c.37,0,.56,0,.75-.19h.19c.19-.19.37-.19.75-.37l.19-.19.19-.19c0-.19.19-.19.19-.37v-.19a1.93,1.93,0,0,0,.19-.75Z"/>
    <path class="cls-2" d="M90.66,103.3a18,18,0,0,0,9.33-2.61,18.2,18.2,0,0,0,9.33,2.8,17.72,17.72,0,1,0,0-35.44A18,18,0,0,0,100,70.66a18.2,18.2,0,0,0-9.33-2.8,17.72,17.72,0,0,0,0,35.44Zm13.62-28.91a11.11,11.11,0,0,1,5-1.12,12.31,12.31,0,0,1,0,24.62,11.11,11.11,0,0,1-5-1.12,17.31,17.31,0,0,0,0-22.38ZM90.66,73.27a11.11,11.11,0,0,1,5,1.12A12.21,12.21,0,0,1,103,85.58a12.53,12.53,0,0,1-3,8,12.27,12.27,0,0,1-4.29,3.17,11.11,11.11,0,0,1-5,1.12,12.31,12.31,0,0,1,0-24.62Z"/>
    <path class="cls-3" d="M109.31,104.24a23.36,23.36,0,0,0-9.33,2.05,23.36,23.36,0,0,0-9.33-2.05,22.56,22.56,0,0,0-17.16,7.83c-6.53,7.65-10.26,17.53-11,29.47a4.94,4.94,0,0,0,1.49,4.1,5.08,5.08,0,0,0,3.92,1.68h64.54a5.08,5.08,0,0,0,3.92-1.68,6.52,6.52,0,0,0,1.49-4.1c-.75-11.94-4.48-22-11-29.47A23.64,23.64,0,0,0,109.31,104.24ZM86.56,141.73H67.9c.75-10.82,3.92-19.58,9.7-26.3a17.56,17.56,0,0,1,13.06-6,20.66,20.66,0,0,1,3.54.37,15.9,15.9,0,0,1,5.78,2.42,19.8,19.8,0,0,1,3.73,3.17c5.78,6.71,9.14,15.48,9.7,26.3Zm45.7.19H119v-.37c-.75-11.94-4.48-22-11-29.47h0A21.28,21.28,0,0,0,106,110a20.66,20.66,0,0,1,3.54-.37,17.26,17.26,0,0,1,13.06,6C128.34,122.14,131.51,131.1,132.25,141.91Z"/>
    <path class="cls-4" d="M75.55,63.39a3.6,3.6,0,0,0,1.87.56,3.26,3.26,0,0,0,2.24-.75l4.29-3H99.61a8,8,0,0,0,7.46-5h8l4.29,3a3.57,3.57,0,0,0,4.1.19,4.18,4.18,0,0,0,2.24-3.54V38a8,8,0,0,0-8-8H99.61a8,8,0,0,0-7.46,5H81.52a8,8,0,0,0-8,8V59.84A3.67,3.67,0,0,0,75.55,63.39Zm42.15-28.16a2.55,2.55,0,0,1,2.61,2.61V52.2l-3-2.05a2.12,2.12,0,0,0-1.49-.56h-8.21v-6.9A8.07,8.07,0,0,0,102,35h15.67Zm-39,7.83a2.55,2.55,0,0,1,2.61-2.61H99.43A2.55,2.55,0,0,1,102,43.06v9a2.55,2.55,0,0,1-2.61,2.61H83a2.12,2.12,0,0,0-1.49.56l-2.8,2.05Z"/>
    <circle class="cls-5" cx="85.44" cy="47.53" r="1.68"/>
    <circle class="cls-6" cx="90.47" cy="47.53" r="1.68"/>
    <circle class="cls-7" cx="95.7" cy="47.53" r="1.68"/>
  </g>
</svg>
