<svg id="Capa_1" data-name="Capa 1" xmlns="http://www.w3.org/2000/svg" xmlns:xlink="http://www.w3.org/1999/xlink" width="200" height="200" viewBox="0 0 200 200">
  <defs>
    <style>
      .cls-1 {
        fill: none;
      }

      .cls-2 {
        clip-path: url(#clip-path);
      }

      .cls-3 {
        fill: url(#Degradado_sin_nombre_5);
      }

      .cls-4 {
        clip-path: url(#clip-path-2);
      }

      .cls-5 {
        clip-path: url(#clip-path-3);
      }

      .cls-6 {
        clip-path: url(#clip-path-4);
      }

      .cls-7 {
        clip-path: url(#clip-path-5);
      }

      .cls-8 {
        clip-path: url(#clip-path-6);
      }

      .cls-9 {
        clip-path: url(#clip-path-7);
      }

      .cls-10 {
        clip-path: url(#clip-path-8);
      }

      .cls-11 {
        clip-path: url(#clip-path-9);
      }

      .cls-12 {
        clip-path: url(#clip-path-10);
      }

      .cls-13 {
        clip-path: url(#clip-path-11);
      }

      .cls-14 {
        clip-path: url(#clip-path-12);
      }

      .cls-15 {
        clip-path: url(#clip-path-13);
      }
    </style>
    <clipPath id="clip-path">
      <path class="cls-1" d="M192.54,180.74c-2.56-7.2-5.68-14.19-8.19-21.42s-5.46-14.46-8.25-21.67c-2.32-6-4.83-11.91-7-17.95-3-8.35-6-16.71-9.57-24.83a2.72,2.72,0,0,0-2.87-1.79c-5.08,0-10.16,0-15.25,0-1.77,0-3.55.27-3.47,2.57C138,97.8,139.71,98,141.39,98c4,0,8,.15,12-.06,2.18-.11,3,.77,3.7,2.66q12.81,34.09,25.77,68.12c1.4,3.69,2.75,7.39,4.2,11.28H184l-94,0c-1.66,0-3.33.05-5,.08-1,0-2-.08-3-.08q-32.37,0-64.74,0c-1.45,0-2.58.25-1.73-2q14.93-39.16,29.7-78.38a2.24,2.24,0,0,1,2.53-1.73c3.91.08,7.83.06,11.75,0,1.49,0,2.67-.73,2.72-2.34s-1.11-2.3-2.59-2.47a10.71,10.71,0,0,0-1.25,0c-4.17,0-8.34.09-12.5,0-2.47-.07-3.68.92-4.55,3.25C33.18,118.19,24.87,140,16.6,161.84Q13,171.41,9.4,181c-.94,2.52-.22,3.62,2.4,3.86.58.05,1.17,0,1.75,0h69c.83,0,1.65-.11,2.48-.16a3.71,3.71,0,0,0,.73.15q52,0,104,0C192.81,184.87,193.56,183.62,192.54,180.74Z"/>
    </clipPath>
    <linearGradient id="Degradado_sin_nombre_5" data-name="Degradado sin nombre 5" x1="4.5" y1="110" x2="199.5" y2="110" gradientUnits="userSpaceOnUse">
      <stop offset="0" stop-color="#1f94bd"/>
      <stop offset="0.67" stop-color="#644d97"/>
      <stop offset="1" stop-color="#822e86"/>
    </linearGradient>
    <clipPath id="clip-path-2">
      <path class="cls-1" d="M94.22,155c-.9-.56-1.64-1.22-1.29-2.43s1.34-1.46,2.47-1.45q5.61,0,11.22,0c1.13,0,2.11.22,2.46,1.46s-.4,1.87-1.3,2.42Z"/>
    </clipPath>
    <clipPath id="clip-path-3">
      <path class="cls-1" d="M101.73,31A3.12,3.12,0,0,1,103,33.93c-.07,2,0,4,0,6,0,1.52-.76,2.42-2,2.4s-1.9-.91-1.91-2.44c0-2.09,0-4.19,0-6.28A2.53,2.53,0,0,1,100.52,31Z"/>
    </clipPath>
    <clipPath id="clip-path-4">
      <path class="cls-1" d="M54.26,58.37c1-1.66,1.84-1.87,3.55-.89s3.62,2.07,5.42,3.13c1.33.78,1.73,1.82,1.15,2.87s-1.7,1.24-3,.48c-1.89-1.07-3.78-2.13-5.63-3.26a9.53,9.53,0,0,1-1.45-1.37Z"/>
    </clipPath>
    <clipPath id="clip-path-5">
      <path class="cls-1" d="M147.74,59.34a17.32,17.32,0,0,1-2,1.66c-1.7,1.06-3.46,2-5.21,3-1.26.71-2.37.48-2.94-.54s-.2-2.06,1-2.8c1.83-1.09,3.68-2.14,5.52-3.2s2.54-.77,3.55.89Z"/>
    </clipPath>
    <clipPath id="clip-path-6">
      <path class="cls-1" d="M101,131.24H90.51c-2,0-2.73-.59-2.72-2.55,0-4.25-1.69-7.63-4.44-10.77a157.71,157.71,0,0,1-11.13-13.69A31.46,31.46,0,0,1,67,80.14C69.46,66.38,77.42,57,90.68,52.71c12.15-3.9,23.37-1.34,33.1,7a32.51,32.51,0,0,1,10.89,18.54,33.45,33.45,0,0,1-6.21,28c-3.1,4.12-6.48,8-9.91,11.89a15.25,15.25,0,0,0-4.18,10.39c0,2.14-.66,2.7-2.79,2.7Zm9.39-3.92a4.9,4.9,0,0,0,.19-.84c.17-4.07,2-7.37,4.61-10.39,3.44-4,6.89-7.92,10.07-12.08a29.4,29.4,0,0,0,5.64-24.67A29.9,29.9,0,0,0,116.25,59a30.71,30.71,0,0,0-34.93,3.11c-12.7,11-14.59,29-4.33,42.3,3.27,4.24,6.87,8.23,10.37,12.3a16.12,16.12,0,0,1,4.11,8.85l.2,1.79Z"/>
    </clipPath>
    <clipPath id="clip-path-7">
      <path class="cls-1" d="M101.07,135.76c3.47,0,6.94,0,10.41,0,.52,0,1.2-.08,1.52.21a2.83,2.83,0,0,1,1.06,1.8c0,.59-.69,1.26-1.24,1.67-.36.27-1,.18-1.53.18H90.71a7.42,7.42,0,0,1-1.09-.06,1.85,1.85,0,0,1-1.78-1.92,1.81,1.81,0,0,1,1.84-1.84c1.73-.08,3.47,0,5.2,0Z"/>
    </clipPath>
    <clipPath id="clip-path-8">
      <path class="cls-1" d="M101,147.29c-2.9,0-5.8,0-8.7,0a1.86,1.86,0,0,1-2-1.85,1.92,1.92,0,0,1,1.77-2,7.56,7.56,0,0,1,1.2-.05H108.9a6.82,6.82,0,0,1,.84,0,2,2,0,0,1,1.92,1.94,1.89,1.89,0,0,1-2.07,1.89c-2.86,0-5.72,0-8.58,0Z"/>
    </clipPath>
    <clipPath id="clip-path-9">
      <path class="cls-1" d="M128.93,39.66a13.54,13.54,0,0,1-.57,1.44c-1.13,2-2.26,4-3.44,6-.78,1.31-2.2,1.59-3.13.66a1.87,1.87,0,0,1-.28-2.43q1.78-3.15,3.62-6.27a1.75,1.75,0,0,1,2.35-.89C128.11,38.44,128.51,39.19,128.93,39.66Z"/>
    </clipPath>
    <clipPath id="clip-path-10">
      <path class="cls-1" d="M75.6,38a4.72,4.72,0,0,1,1.3,1.1c1.25,2,2.42,4.08,3.56,6.16a1.91,1.91,0,1,1-3.29,1.93c-1.25-2.06-2.47-4.15-3.61-6.27C72.78,39.46,73.65,38,75.6,38Z"/>
    </clipPath>
    <clipPath id="clip-path-11">
      <path class="cls-1" d="M108.75,86.59a6,6,0,0,1-7.2-1,1.13,1.13,0,0,0-1.1,0c-2.07,1.79-4.31,2.47-7.07,1.07a4.83,4.83,0,0,0,.19.76c4.2,8.7,5.44,18,5.53,27.51,0,1.74.06,3.47.05,5.21,0,1.48-.71,2.32-1.87,2.35s-1.9-.8-2-2.27c-.2-4.63-.29-9.28-.61-13.9a50.17,50.17,0,0,0-5.37-18.83c-.62-1.26-1.29-2.51-2-3.75a1.92,1.92,0,0,1,.22-2.44,1.9,1.9,0,0,1,2.33-.39c1.47.66,2.95,1.3,4.4,2s2.79.72,3.95-.56a1.67,1.67,0,0,1,.18-.16c2.54-2.08,2.63-2.17,5,0a3.53,3.53,0,0,0,4.49.55c1.29-.66,2.63-1.21,4-1.82a2,2,0,0,1,2.53.42,2,2,0,0,1,.11,2.46c-1.5,3.12-3.09,6.21-4.37,9.42-2.4,6-3.14,12.4-3.38,18.83-.09,2.42-.1,4.84-.14,7.26,0,.32,0,.65,0,1-.1,1.39-.81,2.18-1.94,2.17s-1.87-.83-1.89-2.21c0-1.73,0-3.47.05-5.21.1-6.3.49-12.59,2.25-18.68.75-2.62,1.81-5.16,2.74-7.73C108.1,88,108.36,87.5,108.75,86.59Z"/>
    </clipPath>
    <clipPath id="clip-path-12">
      <path class="cls-1" d="M102.92,60.86c0,1.07-.77,1.74-2.05,2a46.27,46.27,0,0,0-7.43,1.43A20.81,20.81,0,0,0,81.37,75.13c-.18.36-.34.73-.55,1.08a1.89,1.89,0,0,1-2.57.88,1.82,1.82,0,0,1-.82-2.58,40.11,40.11,0,0,1,3.85-6.25,25.15,25.15,0,0,1,19.31-9.29A2,2,0,0,1,102.92,60.86Z"/>
    </clipPath>
    <clipPath id="clip-path-13">
      <path class="cls-1" d="M75.32,85.72c0-.28,0-.56,0-.84a1.92,1.92,0,0,1,1.83-2.12,1.86,1.86,0,0,1,2,2,25.22,25.22,0,0,0,1.68,8.36,1.89,1.89,0,0,1-1.08,2.6c-1.08.39-2-.11-2.55-1.38A26.12,26.12,0,0,1,75.32,85.72Z"/>
    </clipPath>
  </defs>
  <title>Icono_lampara</title>
  <g>
    <g class="cls-2">
      <rect class="cls-3" x="4.5" y="21.76" width="195" height="176.48"/>
    </g>
    <g class="cls-4">
      <rect class="cls-3" x="4.5" y="21.76" width="195" height="176.48"/>
    </g>
    <g class="cls-5">
      <rect class="cls-3" x="4.5" y="21.76" width="195" height="176.48"/>
    </g>
    <g class="cls-6">
      <rect class="cls-3" x="4.5" y="21.76" width="195" height="176.48"/>
    </g>
    <g class="cls-7">
      <rect class="cls-3" x="4.5" y="21.76" width="195" height="176.48"/>
    </g>
    <g class="cls-8">
      <rect class="cls-3" x="4.5" y="21.76" width="195" height="176.48"/>
    </g>
    <g class="cls-9">
      <rect class="cls-3" x="4.5" y="21.76" width="195" height="176.48"/>
    </g>
    <g class="cls-10">
      <rect class="cls-3" x="4.5" y="21.76" width="195" height="176.48"/>
    </g>
    <g class="cls-11">
      <rect class="cls-3" x="4.5" y="21.76" width="195" height="176.48"/>
    </g>
    <g class="cls-12">
      <rect class="cls-3" x="4.5" y="21.76" width="195" height="176.48"/>
    </g>
    <g class="cls-13">
      <rect class="cls-3" x="4.5" y="21.76" width="195" height="176.48"/>
    </g>
    <g class="cls-14">
      <rect class="cls-3" x="4.5" y="21.76" width="195" height="176.48"/>
    </g>
    <g class="cls-15">
      <rect class="cls-3" x="4.5" y="21.76" width="195" height="176.48"/>
    </g>
  </g>
</svg>
