<?xml version="1.0" encoding="utf-8"?>
<!-- Generator: Adobe Illustrator 21.0.0, SVG Export Plug-In . SVG Version: 6.00 Build 0)  -->
<svg version="1.1" id="Layer_1" xmlns="http://www.w3.org/2000/svg" xmlns:xlink="http://www.w3.org/1999/xlink" x="0px" y="0px"
	 viewBox="0 0 682 480" style="enable-background:new 0 0 682 480;" xml:space="preserve">
<style type="text/css">
	.st0{fill:#F7F7F7;}
	.st1{fill:none;}
	.st2{fill:#81D4E6;}
	.st3{fill:none;stroke:#8C1E81;stroke-width:2;stroke-miterlimit:10;}
	.st4{fill:#8C1E81;}
	.st5{fill:#5B5B5B;}
	.st6{font-family:'OpenSans';}
	.st7{font-size:12px;}
	.st8{font-family:'OpenSans-Bold';}
	.st9{fill:#00A9CE;}
	.st10{fill:#FFFFFF;stroke:#FFFFFF;stroke-width:6;stroke-miterlimit:10;}
</style>
<path class="st0" d="M662.5,17h-640c-2.485,0-4.5,2.015-4.5,4.5v378.076c0,2.485,2.015,4.5,4.5,4.5h640c2.485,0,4.5-2.015,4.5-4.5
	V21.5C667,19.015,664.985,17,662.5,17z"/>
<path class="st1" d="M85,402.72H23v-119c0-1.105,0.895-2,2-2h58c1.105,0,2,0.895,2,2V402.72z"/>
<path class="st1" d="M181,402.72h-62v-193c0-1.105,0.895-2,2-2h58c1.105,0,2,0.895,2,2V402.72z"/>
<path class="st1" d="M277,402.72h-62v-284c0-1.105,0.895-2,2-2h58c1.105,0,2,0.895,2,2V402.72z"/>
<path class="st1" d="M374,402.72h-62v-283c0-1.105,0.895-2,2-2h58c1.105,0,2,0.895,2,2V402.72z"/>
<path class="st1" d="M470,402.72h-62v-275c0-1.105,0.895-2,2-2h58c1.105,0,2,0.895,2,2V402.72z"/>
<path class="st1" d="M566,402.72h-62v-269c0-1.105,0.895-2,2-2h58c1.105,0,2,0.895,2,2V402.72z"/>
<path class="st1" d="M662,402.72h-62v-369c0-1.105,0.895-2,2-2h58c1.105,0,2,0.895,2,2V402.72z"/>
<g>
	<path class="st2" d="M79,404.076H29v-83.375c0-2.926,2.372-5.299,5.299-5.299h39.402c2.926,0,5.299,2.372,5.299,5.299V404.076z"/>
	<path class="st2" d="M175,404.076h-50V266.471c0-2.926,2.372-5.299,5.299-5.299h39.402c2.926,0,5.299,2.372,5.299,5.299V404.076z"
		/>
	<path class="st2" d="M271,404.076h-50V199.783c0-2.926,2.372-5.299,5.299-5.299h39.402c2.927,0,5.299,2.372,5.299,5.299V404.076z"
		/>
	<path class="st2" d="M368,404.076h-50v-203.56c0-2.926,2.372-5.299,5.299-5.299h39.402c2.927,0,5.299,2.372,5.299,5.299V404.076z"
		/>
	<path class="st2" d="M464,404.076h-50V206.378c0-2.926,2.372-5.299,5.299-5.299h39.402c2.927,0,5.299,2.372,5.299,5.299V404.076z"
		/>
	<path class="st2" d="M560,404.076h-50V210.775c0-2.926,2.372-5.299,5.299-5.299h39.402c2.927,0,5.299,2.372,5.299,5.299V404.076z"
		/>
	<path class="st2" d="M656,404.076h-50V137.491c0-2.926,2.372-5.299,5.299-5.299h39.402c2.927,0,5.299,2.372,5.299,5.299V404.076z"
		/>
</g>
<path class="st3" d="M54.378,397.28l96.041-27.565l96.041-16.885l96.041-44.06l96.041-38.285l96.041-92.365l96.041-120.955"/>
<path class="st4" d="M60.378,397.28c0,3.314-2.686,6-6,6c-3.314,0-6-2.686-6-6s2.686-6,6-6
	C57.691,391.28,60.378,393.966,60.378,397.28z"/>
<path class="st4" d="M156.418,369.715c0,3.314-2.686,6-6,6s-6-2.686-6-6c0-3.314,2.686-6,6-6S156.418,366.401,156.418,369.715z"/>
<path class="st4" d="M252.459,352.83c0,3.314-2.686,6-6,6c-3.314,0-6-2.686-6-6c0-3.314,2.686-6,6-6
	C249.773,346.83,252.459,349.516,252.459,352.83z"/>
<path class="st4" d="M348.5,308.77c0,3.314-2.686,6-6,6s-6-2.686-6-6c0-3.314,2.686-6,6-6S348.5,305.456,348.5,308.77z"/>
<path class="st4" d="M444.541,270.485c0,3.314-2.686,6-6,6c-3.314,0-6-2.686-6-6c0-3.314,2.686-6,6-6
	C441.855,264.485,444.541,267.171,444.541,270.485z"/>
<path class="st4" d="M540.582,178.12c0,3.314-2.686,6-6,6c-3.314,0-6-2.686-6-6c0-3.314,2.686-6,6-6
	C537.895,172.12,540.582,174.806,540.582,178.12z"/>
<path class="st4" d="M636.622,57.165c0,3.314-2.686,6-6,6s-6-2.686-6-6c0-3.314,2.686-6,6-6S636.622,53.851,636.622,57.165z"/>
<path class="st2" d="M178,457.72c0-0.552,0.448-1,1-1h10c0.552,0,1,0.448,1,1v10c0,0.552-0.448,1-1,1h-10c-0.552,0-1-0.448-1-1
	V457.72z"/>
<path class="st4" d="M356,462.72c0,3.314-2.686,6-6,6s-6-2.686-6-6c0-3.314,2.686-6,6-6S356,459.406,356,462.72z"/>
<text transform="matrix(1 0 0 1 40.694 422.9994)" class="st5 st6 st7">2012</text>
<g>
	<text transform="matrix(1 0 0 1 39.0065 382.0462)" class="st4 st8 st7">1.178</text>
</g>
<text transform="matrix(1 0 0 1 136.6971 422.9994)" class="st5 st6 st7">2013</text>
<g>
	<text transform="matrix(1 0 0 1 135.0096 356.8304)" class="st4 st8 st7">6.691</text>
</g>
<text transform="matrix(1 0 0 1 232.7 422.9994)" class="st5 st6 st7">2014</text>
<g>
	<text transform="matrix(1 0 0 1 193.0744 466.1039)" class="st9 st8 st7">PROYECTOS FACTIBLES</text>
</g>
<g>
	<text transform="matrix(1 0 0 1 360.6925 466.1039)" class="st4 st8 st7">CANTIDAD DE PARTICIPANTES</text>
</g>
<g>
	<text transform="matrix(1 0 0 1 227.5877 342.22)" class="st4 st8 st7">10.068</text>
</g>
<text transform="matrix(1 0 0 1 328.7033 422.9994)" class="st5 st6 st7">2015</text>
<g>
	<text transform="matrix(1 0 0 1 323.591 295)" class="st4 st8 st7">18.880</text>
</g>
<text transform="matrix(1 0 0 1 424.7066 422.9994)" class="st5 st6 st7">2016</text>
<g>
	<text transform="matrix(1 0 0 1 419.5943 253)" class="st4 st8 st7">26.537</text>
</g>
<text transform="matrix(1 0 0 1 520.7098 422.9994)" class="st5 st6 st7">2017</text>
<g>
	<text transform="matrix(1 0 0 1 515.5975 164)" class="st10 st8 st7">45.010</text>
</g>
<g>
	<text transform="matrix(1 0 0 1 515.5975 164)" class="st4 st8 st7">45.010</text>
</g>
<g>
	<text transform="matrix(1 0 0 1 515.5975 164)" class="st4 st8 st7">45.010</text>
</g>
<text transform="matrix(1 0 0 1 616.7125 422.9994)" class="st5 st6 st7">2018</text>
<g>
	<text transform="matrix(1 0 0 1 611.6002 45.9316)" class="st4 st8 st7">69.201</text>
</g>
<g>
	<text transform="matrix(1 0 0 1 47.1499 308.77)" class="st9 st8 st7">65</text>
</g>
<g>
	<text transform="matrix(1 0 0 1 137.034 253.0001)" class="st9 st8 st7">104</text>
</g>
<g>
	<text transform="matrix(1 0 0 1 233.7721 185.2202)" class="st9 st8 st7">153</text>
</g>
<g>
	<text transform="matrix(1 0 0 1 330.5105 189.5599)" class="st9 st8 st7">152</text>
</g>
<g>
	<text transform="matrix(1 0 0 1 427.2489 195.2165)" class="st9 st8 st7">148</text>
</g>
<g>
	<text transform="matrix(1 0 0 1 523.9868 201.0793)" class="st9 st8 st7">145</text>
</g>
<g>
	<text transform="matrix(1 0 0 1 620.7251 126.7202)" class="st9 st8 st7">198</text>
</g>
</svg>
